<?xml version="1.0" encoding="UTF-8"?>
<svg width="995px" height="222px" viewBox="0 0 995 222" version="1.1" xmlns="http://www.w3.org/2000/svg" xmlns:xlink="http://www.w3.org/1999/xlink">
    <title>Sumadi Logo Master File copy_Artboard 2</title>
    <g id="Symbols" stroke="none" stroke-width="1" fill="none" fill-rule="evenodd">
        <g id="Sumadi-Logo-Master-File-copy_Artboard-2" fill="#000000" fill-rule="nonzero">
            <g id="Group" transform="translate(242.400000, 43.550000)">
                <g transform="translate(-0.000000, 0.000000)">
                    <path d="M95.1,27.64 C85.38,12.01 69.75,9.73 54.69,9.54 C39.06,9.54 14.28,15.27 14.29,36.61 C14.29,53.57 32.59,57.57 55.08,61.76 C80.81,66.71 107.5,71.28 107.5,100.06 C107.32,130.18 77.01,137.42 54.71,137.43 C33.93,137.43 10.3,128.86 5.68434189e-14,108.47 L9.15,103.89 C17.35,120.09 38.32,128.09 54.71,128.09 C71.1,128.09 97.21,123.51 97.21,99.87 C97.4,79.86 75.29,75.48 53.37,71.29 C28.97,66.53 4,61.58 4,36.99 C3.42,8.78 32.77,0.01 54.69,0 C73.75,0 90.33,3.04 103.49,22.67 L95.1,27.64 Z" id="Path"></path>
                    <path d="M231.38,1.88 L231.4,84.79 C231.41,154.55 129.25,154.76 129.24,84.81 L129.22,1.9 L139.32,1.9 L139.34,84.81 C139.35,142.18 221.31,141.98 221.3,84.79 L221.28,1.88 L231.38,1.88 Z" id="Path"></path>
                    <path d="M375.85,16.72 L324.78,94.88 L321.35,94.88 L269.87,16.74 L269.89,135.29 L259.6,135.29 L259.57,1.87 C264.53,1.87 266.81,1.87 271.77,1.87 L322.87,79.63 L373.36,1.85 L385.94,1.85 L385.97,135.27 L375.87,135.27 L375.85,16.72 Z" id="Path"></path>
                    <path d="M521.49,135.25 L506.81,102.47 L427.14,102.49 L412.66,135.28 L401.6,135.28 L461.42,1.85 L472.67,1.85 L532.55,135.26 L521.49,135.25 Z M502.8,92.94 L466.95,11.75 L431.13,92.95 L502.8,92.94 Z" id="Shape"></path>
                    <path d="M665.56,66.98 C666.33,100.91 644.61,135.22 597.91,135.23 C582.85,135.23 567.79,135.24 552.74,135.24 L552.71,1.82 C567.77,1.82 582.83,1.80999769 597.88,1.80999769 C643.06,1.8 664.79,34.2 665.56,66.98 Z M563.01,11.54 L563.03,125.33 L597.91,125.32 C637.56,125.31 655.85,95.57 655.27,66.98 C654.69,39.15 636.39,11.52 597.89,11.5299973 L563.01,11.54 Z" id="Shape"></path>
                    <polygon id="Path" points="691.11 135.21 691.08 1.79 701.18 1.79 701.21 135.21"></polygon>
                </g>
                <g transform="translate(717.390000, 1.850000)" id="Path">
                    <polygon points="6.81 2.06 0.95 2.06 0.95 0.95 13.93 0.95 13.93 2.06 8.07 2.06 8.07 17.15 6.82 17.15"></polygon>
                    <polygon points="9.01 18.1 5.87 18.1 5.86 3.01 0 3.01 0 2.84217094e-14 14.87 2.84217094e-14 14.87 3.01 9.01 3.01"></polygon>
                </g>
                <g transform="translate(735.070000, 1.390000)" id="Path">
                    <path d="M15.09,3.19 L8.88,12.69 L8.46,12.69 L2.2,3.19 L2.2,17.61 L0.95,17.61 L0.95,1.38 C1.55,1.38 1.83,1.38 2.43,1.38 L8.64,10.84 L14.78,1.38 L16.31,1.38 L16.31,17.61 L15.08,17.61 L15.09,3.19 Z"></path>
                    <polygon points="0.01 18.56 0 0.43 1.25 0.43 1.25 0.03 1.52 0.43 2.95 0.43 8.64 9.1 14.27 0.43 15.76 0.43 16.04 0 16.04 0.43 17.27 0.43 17.27 18.55 14.14 18.55 14.14 6.37 9.39 13.64 7.95 13.64 3.15 6.35 3.15 18.56"></polygon>
                </g>
            </g>
            <g id="Group">
                <path d="M95.76,0 L0,55.29 L0,165.87 L95.76,221.16 L191.53,165.87 L191.53,55.29 L95.76,0 Z M143.66,107.61 L143.66,161.98 L96.57,189.18 L45.49,159.67 L88.59,134.8 L50.41,112.76 L45.49,110.04 L45.49,61.01 L47.77,59.69 L95.66,31.99 L146.04,61.08 L104.56,85.03 L143.66,107.61 Z" id="Shape"></path>
                <polygon id="Path" points="100.57 177.64 100.57 177.61 96.54 179.94 61.46 159.68 96.59 139.38 118.71 152.15 131.69 159.67"></polygon>
                <polygon id="Path" points="135.69 112.24 135.68 152.76 117.97 142.54 117.96 142.54 97.87 130.94 97.86 130.95 61.46 109.91 96.5 89.64 132.45 110.36 132.44 110.37"></polygon>
            </g>
        </g>
    </g>
</svg>