<?xml version="1.0" encoding="UTF-8"?>
<svg width="562px" height="436px" viewBox="0 0 562 436" version="1.1" xmlns="http://www.w3.org/2000/svg" xmlns:xlink="http://www.w3.org/1999/xlink">
    <title>Sumadi Logo Master File copy_Artboard 9</title>
    <g id="Symbols" stroke="none" stroke-width="1" fill="none" fill-rule="evenodd">
        <g id="Sumadi-Logo-Master-File-copy_Artboard-9" fill="#000000" fill-rule="nonzero">
            <g id="Group" transform="translate(0.000000, 333.080000)">
                <g>
                    <path d="M70.98,20.63 C63.72,8.97 52.06,7.26 40.82,7.12 C29.15,7.12 10.66,11.39 10.66,27.33 C10.66,39.99 24.32,42.98 41.11,46.1 C60.32,49.8 80.24,53.2 80.24,74.69 C80.1,97.17 57.48,102.58 40.84,102.58 C25.33,102.58 7.69,96.18 0,80.96 L6.83,77.54 C12.95,89.63 28.6,95.61 40.84,95.6 C53.08,95.6 72.57,92.18 72.56,74.54 C72.7,59.6 56.2,56.33 39.83,53.21 C21.62,49.66 2.98,45.96 2.97,27.61 C2.54,6.55 24.45,0.01 40.81,0 C55.04,0 67.42,2.27 77.24,16.92 L70.98,20.63 Z" id="Path"></path>
                    <path d="M172.7,1.4 L172.71,63.29 C172.72,115.36 96.46,115.52 96.45,63.31 L96.44,1.42 L103.98,1.42 L103.99,63.31 C104,106.13 165.18,105.98 165.17,63.3 L165.16,1.41 L172.7,1.4 Z" id="Path"></path>
                    <path d="M280.54,12.47 L242.42,70.81 L239.86,70.81 L201.43,12.49 L201.45,100.99 L193.77,100.99 L193.75,1.4 C197.45,1.4 199.16,1.4 202.86,1.4 L241,59.44 L278.69,1.38 L288.08,1.38 L288.1,100.97 L280.56,100.97 L280.54,12.47 Z" id="Path"></path>
                    <path d="M389.25,100.95 L378.29,76.48 L318.82,76.49 L308.01,100.96 L299.76,100.96 L344.41,1.36 L352.8,1.36 L397.49,100.94 L389.25,100.95 Z M375.3,69.36 L348.54,8.76 L321.81,69.37 L375.3,69.36 Z" id="Shape"></path>
                    <path d="M496.8,49.99 C497.37,75.32 481.16,100.93 446.3,100.94 C435.06,100.94 423.82,100.94 412.58,100.95 L412.56,1.36 C423.8,1.36 435.04,1.36 446.28,1.3499969 C480,1.34 496.22,25.52 496.8,49.99 Z M420.24,8.59999637 L420.26,93.54 L446.3,93.54 C475.89,93.53 489.55,71.34 489.12,49.99 C488.69,29.22 475.03,8.59 446.29,8.59999637 L420.24,8.59999637 Z" id="Shape"></path>
                    <polygon id="Path" points="515.87 100.92 515.85 1.33 523.39 1.33 523.41 100.92"></polygon>
                </g>
                <g transform="translate(535.480000, 1.370000)" id="Path">
                    <polygon points="5.09 1.54 0.71 1.54 0.71 0.71 10.4 0.71 10.4 1.54 6.02 1.54 6.02 12.8 5.09 12.8"></polygon>
                    <polygon points="6.73 13.51 4.38 13.51 4.38 2.25 0 2.25 0 0 11.11 0 11.11 2.25 6.73 2.25"></polygon>
                </g>
                <g transform="translate(548.680000, 1.030000)" id="Path">
                    <path d="M11.26,2.38 L6.63,9.47 L6.32,9.47 L1.65,2.38 L1.65,13.14 L0.72,13.14 L0.72,1.03 C1.17,1.03 1.38,1.03 1.83,1.03 L6.47,8.09 L11.05,1.03 L12.19,1.03 L12.19,13.14 L11.27,13.14 L11.26,2.38 Z"></path>
                    <polygon points="0.01 13.85 0 0.32 0.94 0.32 0.94 0.02 1.14 0.32 2.2 0.32 6.45 6.79 10.66 0.32 11.76 0.32 11.97 0 11.97 0.32 12.89 0.32 12.89 13.85 10.56 13.85 10.56 4.76 7.01 10.18 5.94 10.18 2.35 4.74 2.35 13.85"></polygon>
                </g>
            </g>
            <g id="Group" transform="translate(157.400000, 0.000000)">
                <path d="M123.38,1.42108547e-14 L-5.68434189e-14,71.24 L-5.68434189e-14,213.71 L123.38,284.95 L246.77,213.71 L246.77,71.24 L123.38,1.42108547e-14 Z M185.09,138.65 L185.09,208.7 L124.42,243.75 L58.61,205.73 L114.14,173.69 L64.95,145.29 L58.61,141.79 L58.61,78.62 L61.55,76.92 L123.25,41.23 L188.16,78.71 L134.72,109.57 L185.09,138.65 Z" id="Shape"></path>
                <polygon id="Path" points="129.57 228.88 129.57 228.84 124.38 231.84 79.18 205.74 124.45 179.58 152.95 196.04 169.67 205.73"></polygon>
                <polygon id="Path" points="174.82 144.62 174.81 196.82 151.99 183.65 151.98 183.65 126.1 168.71 126.08 168.72 79.18 141.61 124.33 115.5 170.65 142.19 170.64 142.21"></polygon>
            </g>
        </g>
    </g>
</svg>